<svg
    xmlns="http://www.w3.org/2000/svg"
    version="1.1" xmlns:xlink="http://www.w3.org/1999/xlink"
    xmlns:svgjs="http://svgjs.com/svgjs"
    width="512"
    height="512"
    x="0"
    y="0"
    viewBox="0 0 512 512"
    style="enable-background:new 0 0 512 512"
    xml:space="preserve"
    class=""
>
    <g>
        <path fill="#518ef8" d="M207.389 336.471 328.792 215.07v61.735a5.007 5.007 0 0 0 5.001 5.001h166.202v109.358H333.793a5.007 5.007 0 0 0-5.001 5.001v61.708z" data-original="#518ef8"></path>
        <path fill="#ed1b24" d="M183.208 235.223a5.008 5.008 0 0 0-5.001-5.002H12.005V120.863h166.203a5.008 5.008 0 0 0 5.001-5.002V54.127l121.403 121.402-121.404 121.428z" data-original="#ed1b24"></path>
        <path d="M316.634 170.578 183.158 37.101a7.001 7.001 0 0 0-11.952 4.951v66.808H7.004a7.001 7.001 0 0 0-7.001 7.002v119.361a7.001 7.001 0 0 0 7.001 7.001h164.203v66.809a7.001 7.001 0 0 0 11.952 4.949l133.476-133.504a7 7 0 0 0-.001-9.9zm-131.425 121.55v-56.905a7.002 7.002 0 0 0-7.001-7.002H14.005V122.863h164.203a7.001 7.001 0 0 0 7.001-7.001V58.955L301.783 175.53zm319.787-22.325H340.794v-66.808a7.001 7.001 0 0 0-11.952-4.95L195.366 331.52a7.002 7.002 0 0 0 0 9.902l133.476 133.477a7 7 0 0 0 11.952-4.951v-66.78h164.202a7.001 7.001 0 0 0 7.001-7.002V276.804a7 7 0 0 0-7.001-7.001zm-7.001 119.361H333.793a7.002 7.002 0 0 0-7.001 7.001v56.88L210.218 336.471l116.574-116.574v56.907a7.001 7.001 0 0 0 7.001 7.001h164.202z" fill="#000000" data-original="#000000"></path>
    </g>
</svg>