<svg xmlns="http://www.w3.org/2000/svg" version="1.1" xmlns:xlink="http://www.w3.org/1999/xlink" width="512" height="512" x="0" y="0" viewBox="0 0 64 64" style="enable-background:new 0 0 512 512" xml:space="preserve" class=""><g><path d="M54.664 37.414c3.562-9.477-1.92-22.824-9.515-27.152-6.045-3.186-10.917.45-12.42 6.574a28.852 28.852 0 0 1-1.973 4.78c-4.434-1.573-6.185.04-8.03 1.748-1.794 1.665-4.029 3.737-10.004 3.897-9.476-.057-10.765 15.078-6.16 19.983 4.378 3.804 10.301 1.469 15.406-1.887a10.963 10.963 0 0 0 7.098 1.554c6.688-.992 6.176 6.125 11.755 6.307 2.167-.044 3.892-1.101 5.695-2.637.102.46.18.93.258 1.407.359 3.715 2.229 5.416 6.227 5.472 9.284-.589 8.82-12.529 1.663-20.046zm-22.63-11.897c1.045 4.22-4.652 13.554-10.08 17.36-3.352-2.602-7.063-9.466-2.14-11.193 6.142-1.796 9.535-4.545 11.613-7.427a2.591 2.591 0 0 1 .607 1.26zM14.985 46.624c-3.083.926-5.57.642-7.008-.794-3.278-3.284-2.968-16.715 4.799-16.57 6.729-.18 9.377-2.636 11.31-4.43 1.184-1.097 2.021-1.874 3.487-1.874a6.873 6.873 0 0 1 2.069.388c-1.884 2.517-4.908 4.818-10.388 6.42-6.584 2.29-3.517 10.52.992 14.333a20.577 20.577 0 0 1-5.26 2.527zm27.143 4.367a3.409 3.409 0 0 1-4.154-1.393c-3.062-4.103-5.405-4.751-7.565-4.751-1.74.004-3.212.387-5.026-.139a8.978 8.978 0 0 1-1.661-.668 32.496 32.496 0 0 0 2.53-2.276c5.277-5.278 8.605-12.435 7.742-16.649a4.415 4.415 0 0 0-1.482-2.574 29.933 29.933 0 0 0 2.11-5.06c.826-2.43 1.48-4.35 3.092-5.388 8.51-4.888 16.277 10.566 16.096 18.63a19.382 19.382 0 0 1-.8 5.131c-2.304-1.699-4.78-1.666-7.183-1.636-3.208-.237-5.657.33-6.511 4.334-.56 2.761.278 6.247 2.93 7.27a6.439 6.439 0 0 1 3.529 2.725 10.16 10.16 0 0 1-3.647 2.444zm.837-7.037c-2.37-.718-2.713-7.463.76-7.742.727.022 1.441.017 2.129.006 2.543-.037 4.584-.041 6.493 1.695a31.555 31.555 0 0 1-5.17 9.135 8.675 8.675 0 0 0-4.212-3.094zm14.067 9.312c-1.27 2.076-3.537 2.714-6.388 1.795-2.163-.537-1.67-4.055-2.507-6.081a31.82 31.82 0 0 0 5.756-9.423c4.34 5.164 4.939 10.77 3.14 13.709z" fill="#ffffff" opacity="1" data-original="#000000"></path><path d="M20.5 18.486c7.897-.25 7.896-11.702 0-11.952-7.899.251-7.896 11.703 0 11.952zm0-9.952a3.976 3.976 0 0 1 0 7.952 3.976 3.976 0 0 1 0-7.952z" fill="#ffffff" opacity="1" data-original="#000000"></path></g></svg>