<svg xmlns="http://www.w3.org/2000/svg" version="1.1" xmlns:xlink="http://www.w3.org/1999/xlink" width="512" height="512" x="0" y="0" viewBox="0 0 511.946 511.946" style="enable-background:new 0 0 512 512" xml:space="preserve" class=""><g><path d="M499.012 199.959c-14.358-35.113-39.197-54.157-70.004-53.624-23.562.408-33.37 20.369-43.752 41.5-9.098 18.517-19.41 39.504-40.579 54.566-14.392 10.24-31.691 23.623-45.395 40.468-18.009-23.375-33.666-52.385-47.294-87.531-19.422-50.09-44.416-96.784-95.355-99.269-38.611-1.884-76.21 16.396-105.85 51.474C8.49 197.593-9.518 272.327 4.904 337.937c13.932 63.381 48.706 111.42 100.563 138.925 53.486 28.977 127.728 32.488 184.939 9.318 51.568-20.952 74.001-53.901 79.667-90.259 3.565-28.791-7.356-56.164-28.503-71.436-11.578-8.362-22.406-18.257-32.537-29.756 12.824-16.583 30.077-29.957 44.339-40.105 24.262-17.263 35.952-41.056 45.345-60.173 10.611-21.598 16.79-32.879 30.549-33.117 30.933-.558 47.474 23.796 55.86 44.304 11.522 28.177 14.822 65.825 9.054 103.29-5.942 38.589-21.117 71.883-41.633 91.346-17.118 16.238-40.417 25.33-65.608 25.6a7.5 7.5 0 0 0-7.419 7.58 7.5 7.5 0 0 0 7.498 7.42h.082c28.989-.31 55.898-10.864 75.771-29.716 23.218-22.025 39.603-57.52 46.135-99.946 6.171-40.079 2.528-80.629-9.994-111.253zM284.855 472.246c-52.118 21.245-122.324 18.601-172.36-8.635-47.846-25.377-79.984-69.948-92.941-128.894-13.455-61.212 3.3-130.882 42.686-177.492 25.336-29.983 56.777-46.286 89.005-46.286 1.55 0 3.104.038 4.657.114 34.255 1.671 58.041 27.661 82.1 89.709 14.832 38.25 32.089 69.646 52.156 94.781-.023.036-.048.071-.07.107-17.388 27.809-18.627 56.755-3.684 86.036 11.513 22.56 30.387 40.033 53.732 49.978-12.179 16.889-31.069 30.937-55.281 40.582zm47.933-135.601c16.708 12.067 25.291 34.074 22.399 57.433-1.059 8.553-3.525 16.776-7.272 24.553-20.981-8.421-37.946-23.765-48.152-43.763-11.837-23.195-11.623-45.244.678-67.262 10.104 11.083 20.868 20.749 32.347 29.039zM317.979 95.937a35.142 35.142 0 0 1-32.402-21.448 7.5 7.5 0 0 0-13.807 5.861 50.117 50.117 0 0 0 46.209 30.586c27.67 0 50.181-22.511 50.181-50.181s-22.511-50.181-50.181-50.181c-19.588 0-37.509 11.514-45.657 29.334a7.5 7.5 0 0 0 13.641 6.237c5.714-12.497 18.281-20.571 32.016-20.571 19.399 0 35.181 15.782 35.181 35.181s-15.782 35.182-35.181 35.182z" fill="#ffffff" opacity="1" data-original="#000000" class=""></path></g></svg>