<svg xmlns="http://www.w3.org/2000/svg" version="1.1" xmlns:xlink="http://www.w3.org/1999/xlink" width="512" height="512" x="0" y="0" viewBox="0 0 64 64" style="enable-background:new 0 0 512 512" xml:space="preserve" class=""><g><path d="M55.906 29.034c-4.875-4.563-13.047-6.363-18.605-4.093-5.098 2.08-8.516.902-10.485-.454-2.131-1.468-4.45-2.119-6.704-1.87-1.72.186-3.731.76-5.442 2.214a90.478 90.478 0 0 0-3.869-2.634c-2.893-1.845-6.114-4.823-5.034-8.525C7.357 8.225 16.674 4 23.63 4c5.972 0 7.246 3.163 8.86 7.169 1.192 2.96 2.544 6.317 6.167 8.293 1.03.561 1.89 1.277 2.56 2.128a1 1 0 0 0 1.572-1.236c-.837-1.065-1.905-1.956-3.174-2.648-2.993-1.633-4.1-4.378-5.27-7.284C32.676 6.282 30.95 2 23.629 2 15.822 2 5.703 6.752 3.847 13.111c-.788 2.7-.408 6.761 5.878 10.772a87.48 87.48 0 0 1 3.573 2.426c-.736.982-1.362 2.203-1.798 3.74-1.438 5.057 2.372 7.173 6.406 9.413 4.447 2.469 9.981 5.54 12.31 13.42 1.734 5.871 5.417 9.116 10.367 9.118 7.431-.001 15.701-7.429 18.896-17.015 2.065-6.195.796-11.86-3.573-15.95zm-35.578-4.43c1.993-.268 4.19.68 5.354 1.53 1.944 1.339 6.137 3.205 12.375.659 1.452-.593 3.14-.85 4.906-.818.453 3.376-.592 6.658-.742 7.101-1.382 2.742-2.982 4.29-4.888 4.73-4.247.981-9.972-3.398-16.609-8.468a312.847 312.847 0 0 0-4.344-3.274c1.08-.79 2.388-1.29 3.948-1.46zm37.254 19.749C54.692 53.023 47.095 60 40.582 60c-4.048-.002-6.963-2.663-8.449-7.684-2.56-8.665-8.742-12.096-13.256-14.603-4.361-2.421-6.415-3.735-5.454-7.117.35-1.228.862-2.257 1.513-3.114a294.134 294.134 0 0 1 4.574 3.445c6.284 4.8 11.802 9.017 16.583 9.016.574 0 1.138-.06 1.69-.188 2.538-.587 4.584-2.498 6.256-5.842.11-.264 1.356-3.734.957-7.773 3.488.485 7.046 2.017 9.543 4.354 2.664 2.495 5.355 6.924 3.043 13.859zM46.295 15.274c1.586 0 3.186.703 4.597 1.322 1.182.518 2.318 1.016 3.34 1.016.485 0 .943-.112 1.369-.388 1.082-.703 1.57-2.257 1.586-5.038.02-3.971-1.793-6.64-5.108-7.515-2.772-.734-5.728.558-7.183 3.135-1.622 2.87-2.043 4.895-1.29 6.188.342.584 1.085 1.28 2.69 1.28zm.342-6.484c.822-1.456 2.321-2.322 3.874-2.322.352 0 .707.044 1.058.136 2.45.648 3.634 2.47 3.618 5.572-.015 2.73-.521 3.27-.676 3.37-.416.273-1.69-.288-2.815-.782-1.513-.663-3.395-1.49-5.4-1.49-.296 0-.815-.037-.962-.288-.25-.428-.06-1.785 1.303-4.196zM6.747 39.125c-.715.217-1.62.844-1.87 2.605-.981 6.921 2.408 11.838 9.802 14.221a1 1 0 1 0 .613-1.904c-6.435-2.073-9.273-6.123-8.435-12.035.046-.325.168-.881.468-.972 1.229-.375 5.375 2.264 13.065 10.895.628.705.53 1.529.23 2.065-.303.543-.965 1.06-1.905.89a1.001 1.001 0 0 0-.355 1.97c.237.042.473.063.706.063 1.364 0 2.611-.718 3.3-1.945a3.743 3.743 0 0 0-.483-4.374C10.617 37.96 7.803 38.804 6.747 39.125z" fill="#ffffff" opacity="1" data-original="#000000" class=""></path></g></svg>