<svg xmlns="http://www.w3.org/2000/svg" version="1.1" xmlns:xlink="http://www.w3.org/1999/xlink" width="512" height="512" x="0" y="0" viewBox="0 0 512.039 512.039" style="enable-background:new 0 0 512 512" xml:space="preserve" class=""><g><path d="M508.113 297.647c-4.106-25.602-12.951-57.366-31.912-80.719 13.217-14.834 21.269-34.364 21.269-55.747 0-19.01-6.535-37.632-18.4-52.438-11.682-14.577-28.075-24.956-46.157-29.225-4.033-.95-8.071 1.545-9.023 5.576s1.544 8.071 5.576 9.022c31.208 7.369 53.005 34.946 53.005 67.064 0 17.106-6.28 32.764-16.637 44.824-42.111-34.913-82.512-27.435-112.893-12.099a68.485 68.485 0 0 1-8.281-32.725c0-32.103 21.784-59.678 52.975-67.057a7.5 7.5 0 0 0-3.453-14.597c-18.074 4.276-34.458 14.657-46.132 29.23-11.858 14.803-18.389 33.42-18.389 52.423a83.384 83.384 0 0 0 9.932 39.553c-17.18 9.303-37.869 20.693-55.834 19.869-27.704-.993-40.16-29.029-54.582-61.493-9.414-21.188-19.147-43.098-34.369-60.351-17.92-20.311-40.214-30.184-68.155-30.184-44.292 0-79.252 27.165-101.101 78.554C6.667 191.543-2.44 255.017.563 321.277c2.694 59.434 14.577 108.365 30.274 124.658 12.199 12.662 32.217 23.825 59.5 33.178 3.918 1.345 8.184-.745 9.527-4.663s-.744-8.184-4.663-9.527c-24.658-8.453-43.179-18.618-53.562-29.396-10.554-10.955-23.221-51.593-26.092-114.93-2.905-64.094 5.772-125.182 23.807-167.6 19.585-46.065 48.957-69.423 87.297-69.423 52.553-.001 70.988 41.495 88.815 81.625 15.085 33.955 30.683 69.065 67.753 70.393 23.06.764 44.159-11.342 64.67-22.282 15.385 19.341 39.098 31.776 65.675 31.776 19.485 0 37.424-6.695 51.682-17.879 16.468 20.74 24.321 49.525 28.056 72.815 9.391 58.552-.872 122.758-12.108 135.818-23.255 27.028-76.689 45.481-150.458 51.961-66.908 5.875-142.509.885-202.241-13.35a7.501 7.501 0 0 0-3.478 14.592c44.345 10.568 97.17 16.168 148.936 16.167 19.691 0 39.24-.812 58.095-2.467 44.993-3.952 125.677-16.628 160.516-57.12 15.311-17.795 25.439-86.31 15.549-147.976zm-146.498-91.274c28.722-14.481 61.097-15.735 93.225 9.947-11.513 8.64-25.807 13.766-41.276 13.766-20.713 0-39.306-9.2-51.949-23.713zM255.024 60.114c14.691 0 26.643-11.952 26.643-26.643S269.715 6.828 255.024 6.828s-26.643 11.952-26.643 26.643 11.952 26.643 26.643 26.643zm0-38.286c6.42 0 11.643 5.223 11.643 11.643s-5.223 11.643-11.643 11.643-11.643-5.223-11.643-11.643 5.223-11.643 11.643-11.643z" fill="#ffffff" opacity="1" data-original="#000000"></path></g></svg>