<svg xmlns="http://www.w3.org/2000/svg" version="1.1" xmlns:xlink="http://www.w3.org/1999/xlink" width="512" height="512" x="0" y="0" viewBox="0 0 512.049 512.049" style="enable-background:new 0 0 512 512" xml:space="preserve" class=""><g><path d="M489.988 83.899c-15.545-18.099-33.864-26.32-54.443-24.442-21.958 2.006-45.569 15.479-70.177 40.046-19.262 19.23-34.981 41.286-43.271 55.515-12.372 21.238-28.701 34.48-51.388 41.673-21.019 6.665-45.554 7.601-71.53 8.592-36.949 1.41-78.828 3.007-119.666 21.89-3.76 1.738-5.398 6.195-3.66 9.955s6.195 5.401 9.955 3.66c38.114-17.623 76.663-19.094 113.942-20.516 53.485-2.04 104.005-3.968 135.308-57.703 18.762-32.208 63.004-84.626 101.851-88.174 15.682-1.438 29.327 4.873 41.7 19.277 16.433 19.131 21.878 37.965 16.186 55.98-10.37 32.813-58.666 63.838-126.04 80.967-40.795 10.372-54.08 48.416-64.693 91.517-24.325 11.271-46.679 7.108-68.411 3.055-24.767-4.619-50.379-9.396-69.883 16.073-11.665 15.234-10.23 40.486 3.838 67.549 12.076 23.229 32.804 46.217 59.427 61.439-33.815 21.948-68.816 30.495-101.591 24.713-31.987-5.643-61.137-24.446-84.297-54.376-20.09-25.962-30.22-60.86-27.793-95.746 2.489-35.779 17.373-66.596 41.909-86.775a7.5 7.5 0 0 0 1.029-10.556 7.5 7.5 0 0 0-10.557-1.029C19.98 269.307 3.166 303.869.389 343.802c-2.679 38.509 8.581 77.133 30.894 105.967 25.481 32.93 57.832 53.667 93.555 59.968 40.751 6.936 81.256-4.862 119.629-31.851 16.428 6.931 36.25 11.125 56.093 10.246 54.088-2.247 93.422-17.737 116.909-46.041 24.613-29.66 25.475-65.583 21.864-90.497-3.665-25.288-16.824-44.021-37.055-52.745-23.068-9.949-52.592-5.346-79.838 12.214 9.159-32.902 21.405-58.633 50.011-65.906 73.462-18.677 124.545-52.689 136.647-90.985 7.362-23.297.932-46.94-19.11-70.273zM182.915 401.895c-11.145-21.438-13.151-41.176-5.236-51.511 13.254-17.31 28.832-15.368 55.223-10.446 19.347 3.608 42.195 7.854 66.941-.11-10.513 44.775-21.535 90.834-57.347 120.661-26.85-13.488-47.787-35.908-59.581-58.594zm143.755-75.611c24.134-16.96 50.18-22.065 69.667-13.661 15.264 6.583 25.261 21.188 28.149 41.123 3.175 21.903 2.532 53.348-18.562 78.766-20.662 24.899-56.322 38.57-105.989 40.632-14.94.622-29.082-1.72-42.141-6.202 38.066-35.984 48.007-87.761 59.226-134.597a108.619 108.619 0 0 0 9.65-6.061zM299.416 56.797c15.56 0 28.218-12.658 28.218-28.217S314.976.363 299.416.363c-15.559 0-28.217 12.658-28.217 28.217s12.658 28.217 28.217 28.217zm0-41.434c7.288 0 13.218 5.929 13.218 13.217s-5.93 13.217-13.218 13.217-13.217-5.929-13.217-13.217 5.929-13.217 13.217-13.217z" fill="#ffffff" opacity="1" data-original="#000000" class=""></path><path d="M209.039 156.592c28.181 0 51.107-22.926 51.107-51.107a51.076 51.076 0 0 0-30.956-46.979 7.5 7.5 0 1 0-5.918 13.783 36.092 36.092 0 0 1 21.874 33.196c0 19.91-16.197 36.107-36.107 36.107s-36.107-16.197-36.107-36.107c0-14.265 8.426-27.226 21.467-33.019a7.5 7.5 0 1 0-6.089-13.708c-18.453 8.198-30.377 26.539-30.377 46.727-.001 28.181 22.925 51.107 51.106 51.107z" fill="#ffffff" opacity="1" data-original="#000000" class=""></path></g></svg>