<svg xmlns="http://www.w3.org/2000/svg" version="1.1" xmlns:xlink="http://www.w3.org/1999/xlink" width="512" height="512" x="0" y="0" viewBox="0 0 64 64" style="enable-background:new 0 0 512 512" xml:space="preserve" class=""><g><path fill="#ea4e56" d="m26.26 45.86-6.12 14.78A31.008 31.008 0 0 1 3.36 43.86l14.78-6.12c1.52 3.67 4.45 6.6 8.12 8.12z" opacity="1" data-original="#ea4e56"></path><path fill="#f9bb3d" d="m3.36 20.14 14.78 6.12C17.4 28.03 17 29.97 17 32s.4 3.97 1.14 5.74L3.36 43.86C1.84 40.2 1 36.2 1 32s.84-8.2 2.36-11.86z" opacity="1" data-original="#f9bb3d"></path><path fill="#ea4e56" d="M21.4 21.4c-1.38 1.38-2.5 3.03-3.26 4.86L3.36 20.14c3.13-7.58 9.2-13.65 16.78-16.78l6.12 14.78c-1.83.76-3.48 1.88-4.86 3.26z" opacity="1" data-original="#ea4e56"></path><path fill="#f9bb3d" d="M32 1c4.2 0 8.2.84 11.86 2.36l-6.12 14.78C35.97 17.4 34.03 17 32 17s-3.97.4-5.74 1.14L20.14 3.36A30.83 30.83 0 0 1 32 1z" opacity="1" data-original="#f9bb3d"></path><path fill="#ea4e56" d="m60.64 20.14-14.78 6.12c-1.52-3.67-4.45-6.6-8.12-8.12l6.12-14.78c7.58 3.13 13.65 9.2 16.78 16.78z" opacity="1" data-original="#ea4e56"></path><path fill="#f9bb3d" d="M60.64 20.14C62.16 23.8 63 27.8 63 32s-.84 8.2-2.36 11.86l-14.78-6.12C46.6 35.97 47 34.03 47 32s-.4-3.97-1.14-5.74z" opacity="1" data-original="#f9bb3d"></path><path fill="#ea4e56" d="m45.86 37.74 14.78 6.12a31.008 31.008 0 0 1-16.78 16.78l-6.12-14.78c3.67-1.52 6.6-4.45 8.12-8.12z" opacity="1" data-original="#ea4e56"></path><path fill="#f9bb3d" d="M43.86 60.64C40.2 62.16 36.2 63 32 63s-8.2-.84-11.86-2.36l6.12-14.78C28.03 46.6 29.97 47 32 47s3.97-.4 5.74-1.14z" opacity="1" data-original="#f9bb3d"></path><path fill="#d83049" d="m3.859 43.653-.499.207c3.13 7.58 9.2 13.65 16.78 16.78l1.562-3.772C14.246 54.8 7.924 50.02 3.859 43.653z" opacity="1" data-original="#d83049"></path><path fill="#4c969c" d="M2.324 40.962c.299.987.644 1.954 1.036 2.898l.499-.207a30.837 30.837 0 0 1-1.535-2.691zM60.64 20.14a30.875 30.875 0 0 0-.945-2.047c.217.723.406 1.458.57 2.203z" opacity="1" data-original="#4c969c" class=""></path><path fill="#e8a52d" d="m60.64 20.14-.375.155c.476 2.16.735 4.402.735 6.705a30.845 30.845 0 0 1-4.059 15.328l3.699 1.532C62.16 40.2 63 36.2 63 32s-.84-8.2-2.36-11.86z" opacity="1" data-original="#e8a52d"></path><path fill="#d83049" d="m41.801 55.668 2.059 4.972c7.58-3.13 13.65-9.2 16.78-16.78l-3.699-1.532a31.098 31.098 0 0 1-15.14 13.34z" opacity="1" data-original="#d83049"></path><path fill="#e8a52d" d="M30 58c-2.875 0-5.656-.4-8.298-1.132L20.14 60.64C23.8 62.16 27.8 63 32 63s8.2-.84 11.86-2.36l-2.059-4.972A30.886 30.886 0 0 1 30 58z" opacity="1" data-original="#e8a52d"></path><g fill="#252525"><circle cx="31.962" cy="5.5" r="1.038" fill="#252525" opacity="1" data-original="#252525"></circle><path d="M61.564 44.243A31.772 31.772 0 0 0 64 32c0-4.23-.819-8.35-2.436-12.242-3.218-7.791-9.532-14.104-17.321-17.321C40.352.82 36.232 0 32 0s-8.351.82-12.241 2.436h-.002l-.002.001c-7.79 3.217-14.103 9.53-17.319 17.318v.002C.82 23.65 0 27.769 0 32s.82 8.352 2.436 12.242c3.218 7.791 9.532 14.104 17.321 17.321C23.648 63.18 27.768 64 32 64s8.351-.82 12.241-2.436h.002l.002-.001c7.79-3.217 14.103-9.53 17.319-17.318s0-.002 0-.002zm-2.253-24.635-4.694 1.944a1 1 0 0 0 .765 1.848l4.694-1.944A29.718 29.718 0 0 1 62 32c0 3.631-.651 7.172-1.923 10.545l-12.954-5.364c.571-1.656.877-3.39.877-5.181 0-1.79-.306-3.525-.877-5.181l4.259-1.763a1.001 1.001 0 0 0-.764-1.848l-4.263 1.765a16.12 16.12 0 0 0-7.327-7.328l5.365-12.956a30.15 30.15 0 0 1 14.918 14.919zm-21.956 25.33c-3.376 1.41-7.332 1.411-10.712-.001a14.106 14.106 0 0 1-7.58-7.582C18.357 35.668 18 33.866 18 32s.357-3.668 1.063-5.356v-.001a13.89 13.89 0 0 1 2.37-3.794l1.369 1.368a.997.997 0 0 0 1.414 0 .999.999 0 0 0 0-1.414l-1.369-1.368a13.934 13.934 0 0 1 3.797-2.372C28.333 18.357 30.135 18 32 18s3.667.357 5.357 1.063a14.105 14.105 0 0 1 7.579 7.579l.001.003C45.643 28.332 46 30.134 46 32s-.357 3.668-1.064 5.357a14.11 14.11 0 0 1-7.581 7.581zM19.608 4.69l.961 2.32a27.44 27.44 0 0 0-11.398 9.669 1 1 0 1 0 1.66 1.118 25.44 25.44 0 0 1 10.504-8.938l2.288 5.525a.998.998 0 0 0 1.305.54 1 1 0 0 0 .541-1.307l-2.292-5.535a25.38 25.38 0 0 1 4.011-1.127 1 1 0 0 0-.377-1.965 27.38 27.38 0 0 0-4.399 1.243l-.957-2.31C24.827 2.652 28.368 2 32 2s7.172.652 10.545 1.923L37.18 16.878c-3.646-1.248-7.75-1.146-11.304.338a15.953 15.953 0 0 0-5.183 3.478 15.983 15.983 0 0 0-3.048 4.279L4.689 19.608A30.145 30.145 0 0 1 19.608 4.69zM3.923 21.455l2.315.958a27.26 27.26 0 0 0-1.426 5.436 1 1 0 1 0 1.977.301 25.306 25.306 0 0 1 1.297-4.972l8.791 3.64C16.306 28.475 16 30.209 16 32s.306 3.526.877 5.181L3.923 42.545A29.749 29.749 0 0 1 2 32c0-3.631.651-7.172 1.923-10.545zm17.532 38.622 1.944-4.694a1 1 0 0 0-1.848-.766l-1.944 4.694A30.153 30.153 0 0 1 4.689 44.392l12.957-5.365a16.12 16.12 0 0 0 7.327 7.328l-1.765 4.262a1 1 0 0 0 1.847.766l1.763-4.259c1.657.57 3.392.876 5.182.876s3.526-.306 5.181-.876l5.363 12.953C39.173 61.348 35.632 62 32 62s-7.172-.652-10.545-1.923zm22.937-.767-5.364-12.955a16.12 16.12 0 0 0 7.327-7.328l12.956 5.365A30.145 30.145 0 0 1 44.392 59.31z" fill="#252525" opacity="1" data-original="#252525"></path></g></g></svg>