<svg xmlns="http://www.w3.org/2000/svg" version="1.1" xmlns:xlink="http://www.w3.org/1999/xlink" width="512" height="512" x="0" y="0" viewBox="0 0 512 512" style="enable-background:new 0 0 512 512" xml:space="preserve" class=""><g><path d="M504.396 137.064v282.568c0 12.377-10.034 22.411-22.411 22.411H30.015c-12.377 0-22.411-10.034-22.411-22.411V137.064c0-12.987 10.527-23.513 23.513-23.513h449.765c12.987-.001 23.514 10.526 23.514 23.513z" style="" fill="#efb078" data-original="#efb078"></path><path d="M477.642 122.894v269.149c0 12.496-10.129 22.625-22.626 22.625H56.983c-12.496 0-22.626-10.129-22.626-22.625V122.894" style="" fill="#e2d0c5" data-original="#e2d0c5"></path><path d="M256.003 117.942v296.727h-3.356c-7.046-17.763-24.373-30.314-44.63-30.314H56.982c-12.491 0-22.629-10.128-22.629-22.619V92.586c0-12.501 10.139-22.629 22.629-22.629h151.035c26.502-.001 47.986 21.483 47.986 47.985zM477.643 92.586v269.15c0 12.491-10.128 22.619-22.629 22.619H303.989c-2.879 0-5.708.253-8.445.75-16.536 2.93-30.142 14.326-36.185 29.564h-3.356V117.942c0-23.623 17.063-43.251 39.541-47.246a48.33 48.33 0 0 1 8.445-.74h151.025c12.501 0 22.629 10.129 22.629 22.63z" style="" fill="#fff2e9" data-original="#fff2e9"></path><path d="M295.544 70.697v314.409c-16.536 2.93-30.142 14.326-36.185 29.564h-3.356V117.942c0-23.622 17.063-43.251 39.541-47.245z" style="" fill="#e2d0c5" data-original="#e2d0c5"></path><path d="M313.608 128.537H436.63v148.865H313.608z" style="" fill="#ef6e4b" data-original="#ef6e4b"></path><path d="M504.396 369.897a7.604 7.604 0 0 0-7.604 7.604v42.136c0 8.163-6.645 14.802-14.813 14.802H30.01c-8.162 0-14.802-6.64-14.802-14.802V137.064a7.605 7.605 0 0 0-15.208 0v282.573c0 16.548 13.462 30.01 30.01 30.01h451.97c16.553 0 30.02-13.462 30.02-30.01v-42.136a7.604 7.604 0 0 0-7.604-7.604zM504.396 129.46a7.604 7.604 0 0 0-7.604 7.604v215.089a7.604 7.604 0 0 0 15.208 0V137.064a7.604 7.604 0 0 0-7.604-7.604z" fill="#000000" opacity="1" data-original="#000000"></path><path d="M56.979 422.273h398.032c16.67 0 30.232-13.562 30.232-30.233V92.586c0-16.671-13.562-30.233-30.232-30.233H303.986c-20.441 0-38.329 11.098-47.986 27.578-9.657-16.48-27.545-27.578-47.986-27.578H56.979c-16.671 0-30.233 13.562-30.233 30.233v299.453c0 16.672 13.562 30.234 30.233 30.234zM41.954 392.04v-4.095a30.042 30.042 0 0 0 15.025 4.013h151.035c12.554 0 24.013 5.682 31.534 15.107H56.979c-8.285 0-15.025-6.74-15.025-15.025zm413.057 15.025H272.452c7.521-9.425 18.98-15.107 31.534-15.107h151.025a30.035 30.035 0 0 0 15.024-4.013v4.095c0 8.285-6.739 15.025-15.024 15.025zM303.986 77.56h151.025c8.285 0 15.024 6.74 15.024 15.025v269.149c0 8.28-6.739 15.015-15.024 15.015H303.986c-15.673 0-30.109 6.432-40.382 17.308V117.942c0-22.266 18.116-40.382 40.382-40.382zM41.954 92.586c0-8.285 6.74-15.025 15.025-15.025h151.035c22.266 0 40.382 18.116 40.382 40.382V394.06c-10.272-10.876-24.71-17.309-40.382-17.309H56.979c-8.285 0-15.025-6.736-15.025-15.015V92.586z" fill="#000000" opacity="1" data-original="#000000"></path><path d="M81.221 136.145h123.027a7.605 7.605 0 0 0 0-15.208H81.221a7.605 7.605 0 0 0 0 15.208zM204.248 158.154H138.61a7.605 7.605 0 0 0 0 15.208h65.638a7.605 7.605 0 0 0 0-15.208zM81.221 173.362h32.04a7.605 7.605 0 0 0 0-15.208h-32.04a7.605 7.605 0 0 0 0 15.208zM81.221 247.796h123.027a7.605 7.605 0 0 0 0-15.208H81.221a7.605 7.605 0 0 0 0 15.208zM81.221 322.229h123.027a7.605 7.605 0 0 0 0-15.208H81.221a7.605 7.605 0 0 0 0 15.208zM81.221 210.579h123.027a7.605 7.605 0 0 0 0-15.208H81.221a7.605 7.605 0 0 0 0 15.208zM81.221 285.013h123.027a7.605 7.605 0 0 0 0-15.208H81.221a7.605 7.605 0 0 0 0 15.208zM149.081 347.461h-12.694a7.605 7.605 0 0 0 0 15.208h12.694a7.605 7.605 0 0 0 0-15.208zM436.631 307.022h-25.903a7.604 7.604 0 0 0 0 15.208h25.903a7.604 7.604 0 0 0 0-15.208zM313.605 322.229h71.774a7.604 7.604 0 0 0 0-15.208h-71.774a7.604 7.604 0 0 0 0 15.208zM313.605 285.013h123.026c4.2 0 7.604-3.405 7.604-7.604V128.541a7.604 7.604 0 0 0-7.604-7.604H313.605a7.604 7.604 0 0 0-7.604 7.604v148.867c0 4.2 3.404 7.605 7.604 7.605zm7.604-148.868h107.818v133.659H321.209V136.145zM381.464 347.461H368.77a7.604 7.604 0 0 0 0 15.208h12.694a7.604 7.604 0 0 0 0-15.208z" fill="#000000" opacity="1" data-original="#000000"></path></g></svg>