<svg xmlns="http://www.w3.org/2000/svg" version="1.1" xmlns:xlink="http://www.w3.org/1999/xlink" width="512" height="512" x="0" y="0" viewBox="0 0 511.997 511.997" style="enable-background:new 0 0 512 512" xml:space="preserve" class=""><g><path d="M136.549 247.463c-4.727 0-9.454.256-14.155.759-54.707 5.879-106.94 57.899-113.015 112.623-8.08 70.219 42.302 133.689 112.521 141.769a127.973 127.973 0 0 0 82.01-18.344 92.407 92.407 0 0 1 41.287-14.505c3.549-.316 7.15-.469 10.802-.469 3.464 0 6.902.119 10.307.367a92.564 92.564 0 0 1 41.909 14.641c60.151 37.123 139.004 18.455 176.127-41.696a127.926 127.926 0 0 0 18.233-81.814c-6.066-54.682-58.308-106.693-113.016-112.572a132.161 132.161 0 0 0-14.112-.759H136.549z" style="" fill="#ffd33f" data-original="#ffd33f"></path><circle cx="315.688" cy="375.409" r="25.596" style="" fill="#ea3836" data-original="#ea3836"></circle><path d="M478.574 302.656c-102.692 115.089-333.97 157.92-424.299 170.641 42.225 35.698 102.649 40.109 149.61 10.93a92.393 92.393 0 0 1 41.287-14.504c3.566-.282 7.184-.427 10.827-.427 3.464 0 6.902.119 10.307.367a92.564 92.564 0 0 1 41.909 14.641c60.151 37.123 139.004 18.455 176.127-41.696a127.926 127.926 0 0 0 18.233-81.814 121.35 121.35 0 0 0-24.001-58.138z" style="" fill="#ffac3e" data-original="#ffac3e" class=""></path><path d="M119.485 315.719h34.128v42.66h42.661v34.129h-42.661v42.66h-34.128v-42.66h-42.66v-34.129h42.66z" style="" fill="#383856" data-original="#383856"></path><circle cx="375.413" cy="324.217" r="25.596" style="" fill="#91cece" data-original="#91cece"></circle><circle cx="375.413" cy="426.602" r="25.596" style="" fill="#91cece" data-original="#91cece"></circle><circle cx="435.137" cy="375.409" r="25.596" style="" fill="#ea3836" data-original="#ea3836"></circle><path d="M238.934 247.463v-34.129h34.128v34.129" style="" fill="#874d1b" data-original="#874d1b"></path><path d="M328.981 353.653a25.306 25.306 0 0 1 3.805 13.259c0 14.138-11.459 25.596-25.596 25.596a25.308 25.308 0 0 1-13.259-3.805c7.286 12.064 22.985 15.938 35.05 8.651s15.938-22.985 8.652-35.05a25.503 25.503 0 0 0-8.652-8.651z" style="" fill="#d62121" data-original="#d62121"></path><path d="M388.706 302.46a25.306 25.306 0 0 1 3.805 13.259c0 14.138-11.459 25.596-25.596 25.596a25.308 25.308 0 0 1-13.259-3.805c7.286 12.064 22.985 15.938 35.05 8.651 12.064-7.286 15.938-22.985 8.651-35.05a25.518 25.518 0 0 0-8.651-8.651z" style="" fill="#83b2b7" data-original="#83b2b7"></path><path d="M448.43 353.653a25.306 25.306 0 0 1 3.805 13.259c0 14.138-11.459 25.596-25.596 25.596a25.308 25.308 0 0 1-13.259-3.805c7.286 12.064 22.985 15.938 35.05 8.651s15.938-22.985 8.651-35.05a25.492 25.492 0 0 0-8.651-8.651z" style="" fill="#d62121" data-original="#d62121"></path><path d="M388.706 404.845a25.306 25.306 0 0 1 3.805 13.259c0 14.138-11.459 25.596-25.596 25.596a25.308 25.308 0 0 1-13.259-3.805c7.286 12.064 22.985 15.938 35.05 8.651 12.064-7.286 15.938-22.985 8.651-35.05a25.51 25.51 0 0 0-8.651-8.651z" style="" fill="#83b2b7" data-original="#83b2b7"></path><path d="M76.825 384.172v8.336h42.66v42.66h34.128v-42.66h42.66V358.38h-14.24c-33.701 23.497-85.089 25.851-105.208 25.792z" style="" fill="#202033" data-original="#202033"></path><path d="M238.934 245.133v2.329h34.128v-28.028a64.539 64.539 0 0 1-34.128 25.699z" style="" fill="#6b3713" data-original="#6b3713"></path><path d="M196.274 349.847h-34.128v-34.128a8.535 8.535 0 0 0-8.532-8.532h-34.128a8.535 8.535 0 0 0-8.532 8.532v34.128H76.825a8.535 8.535 0 0 0-8.532 8.532v34.128a8.535 8.535 0 0 0 8.532 8.532h34.128v34.128a8.535 8.535 0 0 0 8.532 8.532h34.128a8.535 8.535 0 0 0 8.532-8.532V401.04h34.128a8.535 8.535 0 0 0 8.532-8.532V358.38a8.535 8.535 0 0 0-8.531-8.533zm-8.532 34.129h-34.128a8.535 8.535 0 0 0-8.532 8.532v34.128h-17.064v-34.128a8.535 8.535 0 0 0-8.532-8.532H85.357v-17.064h34.128a8.535 8.535 0 0 0 8.532-8.532v-34.128h17.064v34.128a8.535 8.535 0 0 0 8.532 8.532h34.128v17.064zM375.447 358.379c18.847 0 34.128-15.281 34.128-34.128s-15.281-34.128-34.128-34.128-34.128 15.281-34.128 34.128 15.281 34.128 34.128 34.128zm0-51.192c9.428 0 17.064 7.636 17.064 17.064s-7.636 17.064-17.064 17.064-17.064-7.636-17.064-17.064 7.645-17.064 17.064-17.064zM375.447 392.508c-18.847 0-34.128 15.281-34.128 34.128s15.281 34.128 34.128 34.128 34.128-15.281 34.128-34.128c0-18.848-15.281-34.128-34.128-34.128zm0 51.192c-9.428 0-17.064-7.636-17.064-17.064s7.636-17.064 17.064-17.064 17.064 7.636 17.064 17.064-7.636 17.064-17.064 17.064zM315.723 341.315c-18.847 0-34.128 15.281-34.128 34.128s15.281 34.128 34.128 34.128 34.128-15.281 34.128-34.128-15.281-34.128-34.128-34.128zm0 51.193c-9.428 0-17.064-7.636-17.064-17.064s7.636-17.064 17.064-17.064 17.064 7.636 17.064 17.064-7.637 17.064-17.064 17.064zM435.171 341.315c-18.847 0-34.128 15.281-34.128 34.128s15.281 34.128 34.128 34.128 34.128-15.281 34.128-34.128-15.28-34.128-34.128-34.128zm0 51.193c-9.428 0-17.064-7.636-17.064-17.064s7.636-17.064 17.064-17.064 17.064 7.636 17.064 17.064-7.636 17.064-17.064 17.064z" fill="#000000" opacity="1" data-original="#000000" class=""></path><path d="M390.497 239.784c-5-.555-10.025-.836-15.051-.853h-93.853v-34.128H264.53v-17.064c0-18.847-15.281-34.128-34.128-34.128h-42.66c-9.428 0-17.064-7.636-17.064-17.064s7.636-17.064 17.064-17.064h136.513c18.847 0 34.128-15.281 34.128-34.128s-15.281-34.128-34.128-34.128h-42.66c-9.428 0-17.064-7.636-17.064-17.064V.033h-17.064v34.128c0 18.847 15.281 34.128 34.128 34.128h42.66c9.428 0 17.064 7.636 17.064 17.064s-7.636 17.064-17.064 17.064H187.742c-18.847 0-34.128 15.281-34.128 34.128s15.281 34.128 34.128 34.128h42.66c9.428 0 17.064 7.636 17.064 17.064v17.064h-17.064v34.128h-93.853c-5.034.009-10.068.299-15.068.853C62.611 246.098 7.425 301.104.898 359.898c-8.575 74.903 45.203 142.579 120.106 151.145a136.54 136.54 0 0 0 87.394-19.564 83.61 83.61 0 0 1 37.447-13.233c6.604-.52 13.233-.546 19.837-.068a84.206 84.206 0 0 1 38.036 13.378c64.135 39.64 148.253 19.777 187.893-44.358a136.546 136.546 0 0 0 19.496-87.343c-6.544-58.794-61.764-113.8-120.61-120.071zm-143.031-17.918h17.064v17.064h-17.064v-17.064zm217.013 233.216c-38.573 43.147-102.538 52.404-151.768 21.97a100.638 100.638 0 0 0-45.809-15.895 149.081 149.081 0 0 0-10.904-.392c-3.882 0-7.679.162-11.501.461a100.392 100.392 0 0 0-45.118 15.75c-56.098 34.708-129.713 17.371-164.43-38.727a119.43 119.43 0 0 1-17.09-76.456c5.614-50.527 54.878-99.603 105.456-105.038a122.44 122.44 0 0 1 13.233-.759h238.898c4.42 0 8.839.239 13.233.708 50.57 5.435 99.825 54.511 105.456 105.038a118.572 118.572 0 0 1-29.656 93.34z" fill="#000000" opacity="1" data-original="#000000" class=""></path></g></svg>