<svg xmlns="http://www.w3.org/2000/svg" version="1.1" xmlns:xlink="http://www.w3.org/1999/xlink" width="512" height="512" x="0" y="0" viewBox="0 0 512 512" style="enable-background:new 0 0 512 512" xml:space="preserve" class=""><g><path fill="#ffe07d" d="M484.297 84.272H27.703c-11.162 0-20.203 9.041-20.203 20.203v303.049c0 11.162 9.041 20.203 20.203 20.203h456.594c11.162 0 20.203-9.041 20.203-20.203V104.476c0-11.163-9.041-20.204-20.203-20.204zM385.301 320.65c-17.85 0-32.325-14.476-32.325-32.325S367.451 256 385.301 256s32.325 14.476 32.325 32.325-14.476 32.325-32.325 32.325zM94.374 288.325c0-17.849 14.476-32.325 32.325-32.325 17.85 0 32.325 14.476 32.325 32.325s-14.476 32.325-32.325 32.325-32.325-14.475-32.325-32.325z" opacity="1" data-original="#ffe07d"></path><path fill="#ffd064" d="M484.297 84.272h-26.264c11.162 0 20.203 9.041 20.203 20.203v303.049c0 11.162-9.041 20.203-20.203 20.203h26.264c11.162 0 20.203-9.041 20.203-20.203V104.476c0-11.163-9.041-20.204-20.203-20.204z" opacity="1" data-original="#ffd064"></path><path fill="#e4f6ff" d="M451.972 181.248H60.028c-11.162 0-20.203 9.041-20.203 20.203v173.748c0 11.162 9.041 20.203 20.203 20.203h391.943c11.162 0 20.203-9.041 20.203-20.203V201.451c.001-11.162-9.04-20.203-20.202-20.203zm-98.996 107.077c0-17.849 14.476-32.325 32.325-32.325s32.325 14.476 32.325 32.325-14.476 32.325-32.325 32.325-32.325-14.475-32.325-32.325zm-193.952 0c0 17.849-14.476 32.325-32.325 32.325-17.85 0-32.325-14.476-32.325-32.325S108.85 256 126.699 256c17.85 0 32.325 14.476 32.325 32.325z" opacity="1" data-original="#e4f6ff"></path><path fill="#d3effb" d="M451.972 181.248h-28.285c11.162 0 20.203 9.041 20.203 20.203v173.748c0 11.162-9.041 20.203-20.203 20.203h28.285c11.162 0 20.203-9.041 20.203-20.203V201.451c0-11.162-9.041-20.203-20.203-20.203z" opacity="1" data-original="#d3effb"></path><path fill="#ffc250" d="m94.374 84.272 15.773 50.473a20.204 20.204 0 0 0 19.284 14.177H382.57a20.204 20.204 0 0 0 19.284-14.177l15.773-50.473z" opacity="1" data-original="#ffc250"></path><path fill="#707dd3" d="M352.976 288.325c0-17.849 14.476-32.325 32.325-32.325H126.699c17.85 0 32.325 14.476 32.325 32.325s-14.476 32.325-32.325 32.325h258.602c-17.85 0-32.325-14.475-32.325-32.325z" opacity="1" data-original="#707dd3"></path><path fill="#5766cb" d="M352.976 288.325c0-17.849 14.476-32.325 32.325-32.325h-91.43c-3.596 10.112-5.546 21.001-5.546 32.325s1.95 22.213 5.546 32.325h91.43c-17.85 0-32.325-14.475-32.325-32.325zM159.024 288.325c0-17.849-14.476-32.325-32.325-32.325h91.43c3.596 10.112 5.546 21.001 5.546 32.325s-1.95 22.213-5.546 32.325h-91.43c17.85 0 32.325-14.475 32.325-32.325z" opacity="1" data-original="#5766cb"></path><path d="M151.953 124.098h6.061c4.142 0 7.5-3.357 7.5-7.5s-3.358-7.5-7.5-7.5h-6.061c-4.142 0-7.5 3.357-7.5 7.5s3.358 7.5 7.5 7.5zM200.441 124.098c4.142 0 7.5-3.357 7.5-7.5s-3.358-7.5-7.5-7.5h-6.061c-4.142 0-7.5 3.357-7.5 7.5s3.358 7.5 7.5 7.5zM360.047 124.098c4.142 0 7.5-3.357 7.5-7.5s-3.358-7.5-7.5-7.5h-6.061c-4.142 0-7.5 3.357-7.5 7.5s3.358 7.5 7.5 7.5zM317.62 124.098c4.142 0 7.5-3.357 7.5-7.5s-3.358-7.5-7.5-7.5h-6.061c-4.142 0-7.5 3.357-7.5 7.5s3.358 7.5 7.5 7.5zM32.33 375.2c0 15.274 12.426 27.7 27.7 27.7h317.52c4.142 0 7.5-3.357 7.5-7.5s-3.358-7.5-7.5-7.5H60.03c-7.002 0-12.7-5.697-12.7-12.7V201.45c0-7.003 5.697-12.7 12.7-12.7h391.94c7.002 0 12.7 5.697 12.7 12.7V375.2c0 7.003-5.697 12.7-12.7 12.7h-39.42c-4.142 0-7.5 3.357-7.5 7.5s3.358 7.5 7.5 7.5h39.42c15.273 0 27.7-12.426 27.7-27.7V201.45c0-15.274-12.426-27.7-27.7-27.7H60.03c-15.273 0-27.7 12.426-27.7 27.7z" fill="#000000" opacity="1" data-original="#000000" class=""></path><path d="M484.3 76.77H161.7c-4.142 0-7.5 3.357-7.5 7.5s3.358 7.5 7.5 7.5h245.725l-12.731 40.739a12.648 12.648 0 0 1-12.125 8.914H129.431a12.648 12.648 0 0 1-12.125-8.914L104.575 91.77H126.7c4.142 0 7.5-3.357 7.5-7.5s-3.358-7.5-7.5-7.5h-99C12.426 76.77 0 89.2 0 104.48v303.04c0 15.28 12.426 27.711 27.7 27.711H72c4.142 0 7.5-3.357 7.5-7.5s-3.358-7.5-7.5-7.5H27.7c-7.003 0-12.7-5.702-12.7-12.711V104.48c0-7.009 5.697-12.711 12.7-12.711h61.159l14.129 45.214c3.634 11.627 14.26 19.439 26.442 19.439h253.139c12.182 0 22.809-7.812 26.442-19.439l14.129-45.214h61.16c7.003 0 12.7 5.702 12.7 12.711v303.04c0 7.009-5.697 12.711-12.7 12.711H107c-4.142 0-7.5 3.357-7.5 7.5s3.358 7.5 7.5 7.5h377.3c15.274 0 27.7-12.431 27.7-27.711V104.48c0-15.28-12.426-27.71-27.7-27.71z" fill="#000000" opacity="1" data-original="#000000" class=""></path><path d="M425.126 288.325c0-21.96-17.865-39.825-39.825-39.825H126.699c-21.96 0-39.825 17.865-39.825 39.825s17.865 39.825 39.825 39.825h258.602c21.96 0 39.825-17.865 39.825-39.825zM299.349 313.15c-2.328-8.025-3.524-16.349-3.524-24.825s1.196-16.8 3.524-24.825h54.844c-5.449 6.813-8.718 15.442-8.718 24.825s3.269 18.012 8.718 24.825zm-141.543 0c5.449-6.813 8.718-15.442 8.718-24.825s-3.269-18.012-8.718-24.825h54.844c2.328 8.025 3.524 16.349 3.524 24.825s-1.196 16.8-3.524 24.825zm70.366-49.65h55.655a104.128 104.128 0 0 0 0 49.65h-55.655a104.128 104.128 0 0 0 0-49.65zm-126.298 24.825c0-13.688 11.137-24.825 24.825-24.825s24.825 11.137 24.825 24.825-11.137 24.825-24.825 24.825-24.825-11.136-24.825-24.825zm283.427 24.825c-13.688 0-24.825-11.137-24.825-24.825s11.137-24.825 24.825-24.825 24.825 11.137 24.825 24.825-11.137 24.825-24.825 24.825z" fill="#000000" opacity="1" data-original="#000000" class=""></path><circle cx="462.073" cy="126.699" r="10.102" fill="#000000" opacity="1" data-original="#000000" class=""></circle><circle cx="49.927" cy="126.699" r="10.102" fill="#000000" opacity="1" data-original="#000000" class=""></circle></g></svg>