<svg xmlns="http://www.w3.org/2000/svg" version="1.1" xmlns:xlink="http://www.w3.org/1999/xlink" width="512" height="512" x="0" y="0" viewBox="0 0 512 512" style="enable-background:new 0 0 512 512" xml:space="preserve" class=""><g><path d="M481.28 460.8H30.72c-11.264 0-20.48-9.216-20.48-20.48V92.16c0-11.264 9.216-20.48 20.48-20.48h450.56c11.264 0 20.48 9.216 20.48 20.48v348.16c0 11.264-9.216 20.48-20.48 20.48z" style="" fill="#ffffff" data-original="#ffffff"></path><path d="M491.52 440.32c0 5.632-4.608 10.24-10.24 10.24h-92.16V307.2h30.72c5.652 0 10.24-4.587 10.24-10.24V81.92h51.2c5.632 0 10.24 4.608 10.24 10.24v348.16zM266.24 307.2h30.72c5.652 0 10.24-4.587 10.24-10.24V81.92h20.48v215.04c0 5.652 4.588 10.24 10.24 10.24h30.72v143.36h-102.4V307.2zm-122.88 0h30.72c5.652 0 10.24-4.587 10.24-10.24V81.92h20.48v215.04c0 5.652 4.588 10.24 10.24 10.24h30.72v143.36h-102.4V307.2zM20.48 440.32V92.16c0-5.632 4.608-10.24 10.24-10.24h51.2v215.04c0 5.652 4.588 10.24 10.24 10.24h30.72v143.36H30.72c-5.632 0-10.24-4.608-10.24-10.24zm460.8-378.88h-51.2V51.2c0-5.652-4.588-10.24-10.24-10.24h-81.92c-5.652 0-10.24 4.588-10.24 10.24v10.24H307.2V51.2c0-5.652-4.587-10.24-10.24-10.24h-81.92c-5.652 0-10.24 4.588-10.24 10.24v10.24h-20.48V51.2c0-5.652-4.588-10.24-10.24-10.24H92.16c-5.652 0-10.24 4.588-10.24 10.24v10.24h-51.2C13.783 61.44 0 75.223 0 92.16v348.16c0 16.937 13.783 30.72 30.72 30.72H481.28c16.937 0 30.72-13.783 30.72-30.72V92.16c0-16.937-13.783-30.72-30.72-30.72z" fill="#000000" opacity="1" data-original="#000000"></path><path d="M501.76 389.12c-5.652 0-10.24 4.588-10.24 10.24 0 5.632-4.608 10.24-10.24 10.24H30.72c-5.632 0-10.24-4.608-10.24-10.24 0-5.652-4.588-10.24-10.24-10.24S0 393.708 0 399.36v40.96c0 16.937 13.783 30.72 30.72 30.72h450.56c16.937 0 30.72-13.783 30.72-30.72v-40.96c0-5.652-4.588-10.24-10.24-10.24" style="opacity:0.24;enable-background:new ;" fill="#000000" opacity="1" data-original="#000000"></path></g></svg>