<svg xmlns="http://www.w3.org/2000/svg" version="1.1" xmlns:xlink="http://www.w3.org/1999/xlink" width="512" height="512" x="0" y="0" viewBox="0 0 512 512" style="enable-background:new 0 0 512 512" xml:space="preserve" class=""><g><path d="M479.99 503.521H45.874a9.044 9.044 0 0 1-9.044-9.044V177.934h452.204v316.543a9.044 9.044 0 0 1-9.044 9.044z" style="" fill="#ff507d" data-original="#ff507d"></path><path d="M489.034 232.199v-54.264H36.83v316.543a9.044 9.044 0 0 0 9.044 9.044H479.99a9.044 9.044 0 0 0 9.044-9.044v-22.61H195.102c-69.929 0-126.617-56.688-126.617-126.617V241.243a9.044 9.044 0 0 1 9.044-9.044h411.505z" style="" fill="#d23c69" data-original="#d23c69" class=""></path><path d="M36.83 177.931h452.204v54.264H36.83z" style="" fill="#d23c69" data-original="#d23c69" class=""></path><path d="m45.874 177.934 54.265 54.265h54.264l-54.264-54.265zM154.403 177.934l54.265 54.265h54.264l-54.264-54.265zM262.932 177.934l54.265 54.265h54.264l-54.264-54.265zM371.461 177.934l54.265 54.265h54.264l-54.264-54.265zM329.366 359.879l-107.398-57.28c-6.024-3.213-13.3 1.153-13.3 7.98v114.558c0 6.828 7.276 11.193 13.3 7.98l107.398-57.28c6.384-3.403 6.384-12.553 0-15.958z" style="" fill="#ffdc64" data-original="#ffdc64" class=""></path><path d="m333.632 364.984-86.893 18.62c-5.63 1.206-10.939-3.085-10.939-8.843v-64.783l-13.833-7.378c-6.024-3.213-13.299 1.153-13.299 7.98v114.558c0 6.827 7.276 11.193 13.3 7.98l107.398-57.28c4.187-2.231 5.573-6.92 4.266-10.854z" style="" fill="#ffc850" data-original="#ffc850"></path><path d="M22.338 66.12h452.19v54.263H22.338z" style="" transform="scale(-1) rotate(-14.91 -712.643 1898.57)" fill="#d23c69" data-original="#d23c69" class=""></path><path d="m451.211 11.189-38.477 66.399-52.438 13.961 38.477-66.398zM346.336 39.111l-38.477 66.4-52.438 13.96 38.477-66.399zM241.459 67.034l-38.475 66.399-52.439 13.961 38.477-66.4zM136.584 94.956l-38.477 66.398-52.437 13.962 38.477-66.399z" style="" fill="#ffdc64" data-original="#ffdc64" class=""></path><path d="M488.77 169.456H101.682l374.585-100.37a8.48 8.48 0 0 0 5.996-10.385L468.219 6.285A8.481 8.481 0 0 0 457.834.289L21.038 117.328a8.48 8.48 0 0 0-5.996 10.385l13.045 48.683v318.081c0 9.662 7.86 17.523 17.523 17.523h434.116c9.662 0 17.523-7.86 17.523-17.523V177.934a8.48 8.48 0 0 0-8.479-8.478zm-121.085 16.957 37.307 37.307h-30.283l-37.307-37.307h30.283zm-54.264 0 37.307 37.307h-30.283l-37.307-37.307h30.283zm-54.265 0 37.307 37.307H266.18l-37.307-37.307h30.283zm-54.264 0 37.307 37.307h-30.283l-37.307-37.307h30.283zm-54.264 0 37.307 37.307h-30.283l-37.307-37.307h30.283zM133.67 223.72h-30.283L66.08 186.413h30.283l37.307 37.307zm-54.265 0h-34.36v-34.361l34.36 34.361zM463.689 54.9l-33.19 8.893 24.297-42.083 8.893 33.19zm-29.974-30.593-26.38 45.692-29.251 7.838 26.38-45.692 29.251-7.838zM381.3 38.353l-26.38 45.692-29.251 7.838 26.38-45.692 29.251-7.838zm-52.416 14.044-26.38 45.692-29.251 7.838 26.38-45.692 29.251-7.838zm-52.415 14.044-26.38 45.692-29.251 7.838 26.38-45.692 29.251-7.838zm-52.415 14.046-26.38 45.692-29.251 7.838 26.38-45.692 29.251-7.838zm-52.416 14.044-26.38 45.692-29.252 7.838 26.38-45.692 29.252-7.838zm-52.415 14.044-26.38 45.692-29.251 7.838 26.38-45.692 29.251-7.838zm-85.606 22.938 33.19-8.893-24.297 42.084-8.893-33.191zm446.674 362.964a.565.565 0 0 1-.565.565H45.61a.565.565 0 0 1-.565-.565V240.678h380.417a8.479 8.479 0 0 0 5.994-14.475l-39.788-39.789h30.283l37.582 37.582c-3.662.938-6.372 4.251-6.372 8.204a8.479 8.479 0 0 0 8.479 8.479h18.653v253.799h-.002zm0-273.704-34.361-34.361h34.361v34.361z" fill="#000000" opacity="1" data-original="#000000" class=""></path><path d="m333.092 352.398-107.398-57.28c-5.481-2.924-11.935-2.761-17.262.435s-8.507 8.813-8.507 15.026v114.558c0 6.212 3.18 11.83 8.507 15.026a17.465 17.465 0 0 0 9.008 2.519c2.821 0 5.647-.693 8.254-2.082a8.477 8.477 0 0 0 3.491-11.471c-2.203-4.132-7.342-5.697-11.471-3.491-.106.057-.283.15-.557-.014-.275-.164-.275-.365-.275-.485V310.581c0-.12 0-.32.275-.485.276-.165.451-.07.557-.014l107.398 57.28c.127.068.3.159.3.499 0 .339-.173.431-.3.499l-75.48 40.255a8.479 8.479 0 0 0 7.98 14.962l75.48-40.255a17.49 17.49 0 0 0 9.277-15.461c0-6.487-3.555-12.41-9.277-15.463z" fill="#000000" opacity="1" data-original="#000000" class=""></path></g></svg>