<svg
    xmlns="http://www.w3.org/2000/svg"
    version="1.1"
    xmlns:xlink="http://www.w3.org/1999/xlink"
    xmlns:svgjs="http://svgjs.com/svgjs"
    width="512"
    height="512"
    x="0"
    y="0"
    viewBox="0 0 64 64"
    style="enable-background:new 0 0 512 512"
    xml:space="preserve"
    class=""
>
    <g>
        <path d="m46 15 3.54-3.54-.876-.698a24.32 24.32 0 0 0-2.405-1.682A27.005 27.005 0 0 0 21.74 7.02a1.968 1.968 0 0 1-1.851-.188A2.001 2.001 0 0 1 19 5.167a1.963 1.963 0 0 1 1.195-1.832A31.016 31.016 0 0 1 49.16 6.18c.88.59 1.729 1.218 2.52 1.866l.7.574L56 5v10ZM5.166 45a1.963 1.963 0 0 1-1.832-1.196A31.016 31.016 0 0 1 6.18 14.84a32.629 32.629 0 0 1 1.866-2.52l.574-.7L5 8h10v10l-3.54-3.54-.697.876A24.334 24.334 0 0 0 9.08 17.74 27.008 27.008 0 0 0 7.02 42.26a1.973 1.973 0 0 1-.188 1.851A2 2 0 0 1 5.166 45ZM32 63a30.855 30.855 0 0 1-17.16-5.18 32.788 32.788 0 0 1-2.52-1.866l-.7-.574L8 59V49h10l-3.54 3.54.876.698a24.32 24.32 0 0 0 2.405 1.682 27.005 27.005 0 0 0 24.519 2.06 1.968 1.968 0 0 1 1.851.188A2.001 2.001 0 0 1 45 58.834a1.963 1.963 0 0 1-1.195 1.832A30.67 30.67 0 0 1 32 63ZM49 56V46l3.54 3.54.697-.876a24.334 24.334 0 0 0 1.683-2.404 27.008 27.008 0 0 0 2.061-24.52 1.973 1.973 0 0 1 .188-1.851A2 2 0 0 1 58.834 19a1.963 1.963 0 0 1 1.832 1.196A31.016 31.016 0 0 1 57.82 49.16c-.59.88-1.217 1.728-1.866 2.519l-.574.7L59 56ZM29.802 47a.994.994 0 0 1-.976-.784l-.638-2.873-1.514-.625-2.483 1.58a1.004 1.004 0 0 1-.54.16.993.993 0 0 1-.704-.297l-3.108-3.108a.982.982 0 0 1-.136-1.244l1.58-2.483-.627-1.513-2.873-.64a.994.994 0 0 1-.783-.975v-4.396a.993.993 0 0 1 .782-.975l2.874-.64.627-1.513-1.58-2.483a.994.994 0 0 1 .136-1.244l3.108-3.108a.988.988 0 0 1 1.243-.136l2.484 1.58 1.514-.626.638-2.874a.994.994 0 0 1 .976-.783h4.396a.994.994 0 0 1 .976.784l.638 2.873 1.514.625 2.483-1.58a1.01 1.01 0 0 1 .54-.158.99.99 0 0 1 .704.295l3.108 3.108a.982.982 0 0 1 .136 1.244l-1.58 2.483.627 1.514 2.873.638a.994.994 0 0 1 .783.976v4.396a.993.993 0 0 1-.782.975l-2.874.64-.627 1.513 1.58 2.483a.994.994 0 0 1-.136 1.244l-3.108 3.108a.994.994 0 0 1-.705.296 1.007 1.007 0 0 1-.54-.16l-2.482-1.58-1.514.626-.638 2.874a.994.994 0 0 1-.976.783Z" style="" fill="#4294ff" data-original="#4294ff" class=""></path>
        <circle cx="32" cy="32" r="7" style="" fill="#d0dbf7" data-original="#d0dbf7"></circle>
        <path d="M19.332 7.662a2.969 2.969 0 0 0 2.788.282A26.007 26.007 0 0 1 45.734 9.93a23.434 23.434 0 0 1 2.307 1.613l-2.748 2.749A1 1 0 0 0 46 16h10a1 1 0 0 0 1-1V5a1 1 0 0 0-1.707-.707l-2.98 2.98a33.826 33.826 0 0 0-2.598-1.925A32.017 32.017 0 0 0 19.812 2.41 2.96 2.96 0 0 0 18 5.166a3 3 0 0 0 1.332 2.496Zm1.246-3.404A30.015 30.015 0 0 1 48.604 7.01a30.966 30.966 0 0 1 3.109 2.373 1 1 0 0 0 1.364-.047L55 7.414V14h-6.586l1.813-1.813a.999.999 0 0 0-.045-1.457 24.547 24.547 0 0 0-3.392-2.498 28.005 28.005 0 0 0-25.43-2.138.96.96 0 0 1-.915-.094 1.003 1.003 0 0 1 .133-1.742ZM7.661 44.668a2.97 2.97 0 0 0 .282-2.789 26.01 26.01 0 0 1 1.988-23.613 23.522 23.522 0 0 1 1.614-2.307l2.748 2.748A1 1 0 0 0 16 18V8a1 1 0 0 0-1-1H5a1 1 0 0 0-.707 1.707l2.98 2.98c-.672.82-1.318 1.69-1.925 2.599A32.015 32.015 0 0 0 2.41 44.187 2.96 2.96 0 0 0 5.166 46a2.997 2.997 0 0 0 2.495-1.332ZM6 43.555a1.042 1.042 0 0 1-1.742-.134A30.016 30.016 0 0 1 7.01 15.396a31.133 31.133 0 0 1 2.373-3.11.999.999 0 0 0-.047-1.363L7.414 9H14v6.585l-1.813-1.812a.98.98 0 0 0-.738-.292 1.002 1.002 0 0 0-.719.337 24.547 24.547 0 0 0-2.498 3.392 28.009 28.009 0 0 0-2.138 25.43.963.963 0 0 1-.094.915ZM44.668 56.338a2.969 2.969 0 0 0-2.788-.282 26.007 26.007 0 0 1-23.614-1.987 23.433 23.433 0 0 1-2.307-1.613l2.748-2.749A1 1 0 0 0 18 48H8a1 1 0 0 0-1 1v10a1 1 0 0 0 1.707.707l2.98-2.98c.818.67 1.689 1.316 2.598 1.925a32.017 32.017 0 0 0 29.902 2.938A2.96 2.96 0 0 0 46 58.834a3 3 0 0 0-1.332-2.496Zm-1.246 3.404a30.015 30.015 0 0 1-28.025-2.753 30.966 30.966 0 0 1-3.11-2.373 1 1 0 0 0-1.364.047L9 56.586V50h6.586l-1.813 1.813a.999.999 0 0 0 .045 1.457 24.547 24.547 0 0 0 3.392 2.498 28.005 28.005 0 0 0 25.43 2.138.966.966 0 0 1 .915.093 1.003 1.003 0 0 1-.133 1.743ZM56.728 52.313c.671-.82 1.316-1.69 1.924-2.599a32.015 32.015 0 0 0 2.938-29.901A2.96 2.96 0 0 0 58.834 18a2.992 2.992 0 0 0-2.777 4.12 26.01 26.01 0 0 1-1.988 23.614 23.523 23.523 0 0 1-1.614 2.307l-2.748-2.748A1 1 0 0 0 48 46v10a1 1 0 0 0 1 1h10a1 1 0 0 0 .707-1.707ZM50 55v-6.585l1.812 1.812a1 1 0 0 0 1.457-.045 24.547 24.547 0 0 0 2.498-3.392 28.009 28.009 0 0 0 2.14-25.43.963.963 0 0 1 .093-.915 1.042 1.042 0 0 1 1.742.134 30.015 30.015 0 0 1-2.753 28.025 31.134 31.134 0 0 1-2.373 3.11.999.999 0 0 0 .047 1.363L56.586 55ZM48 29.802a1.987 1.987 0 0 0-1.566-1.952l-2.366-.526-.228-.552 1.3-2.043a1.989 1.989 0 0 0-.272-2.489l-3.108-3.108a1.991 1.991 0 0 0-2.489-.273l-2.043 1.3-.552-.227-.526-2.366A1.988 1.988 0 0 0 34.198 16h-4.396a1.988 1.988 0 0 0-1.952 1.566l-.526 2.366-.552.228-2.044-1.301a1.988 1.988 0 0 0-2.488.273l-3.11 3.109a1.99 1.99 0 0 0-.27 2.487l1.3 2.044-.228.552-2.366.526A1.987 1.987 0 0 0 16 29.802v4.396a1.987 1.987 0 0 0 1.566 1.952l2.366.526.228.552-1.3 2.043a1.989 1.989 0 0 0 .272 2.489l3.108 3.108a1.989 1.989 0 0 0 2.489.273l2.043-1.3.552.227.526 2.366A1.988 1.988 0 0 0 29.802 48h4.396a1.988 1.988 0 0 0 1.952-1.566l.526-2.366.552-.228 2.044 1.301a1.99 1.99 0 0 0 2.488-.273l3.11-3.109a1.99 1.99 0 0 0 .27-2.487l-1.3-2.044.228-.552 2.366-.526A1.987 1.987 0 0 0 48 34.198Zm-2 4.396-2.873.638a1 1 0 0 0-.707.594l-.627 1.513a1 1 0 0 0 .08.92l1.581 2.483-3.108 3.108-2.484-1.58a1 1 0 0 0-.92-.08l-1.512.626a1.002 1.002 0 0 0-.594.707L34.198 46h-4.395l-.639-2.873a1.002 1.002 0 0 0-.594-.707l-1.512-.626a1 1 0 0 0-.92.08l-2.484 1.58-3.107-3.108 1.58-2.483a1 1 0 0 0 .08-.92l-.627-1.513a1 1 0 0 0-.707-.594L18 34.198v-4.396l2.873-.638a1 1 0 0 0 .707-.594l.627-1.513a1 1 0 0 0-.08-.92l-1.581-2.483 3.108-3.108 2.484 1.58a1 1 0 0 0 .92.08l1.512-.626a1.002 1.002 0 0 0 .594-.707L29.802 18h4.395l.639 2.873a1.002 1.002 0 0 0 .594.707l1.512.626a1 1 0 0 0 .92-.08l2.484-1.58 3.107 3.108-1.58 2.483a1 1 0 0 0-.08.92l.627 1.513a1 1 0 0 0 .707.593l2.873.64Z" style="" fill="#232328" data-original="#232328" class=""></path><path d="M32 24a8 8 0 1 0 8 8 8.01 8.01 0 0 0-8-8Zm0 14a6 6 0 1 1 6-6 6.007 6.007 0 0 1-6 6Z" style="" fill="#232328" data-original="#232328" class=""></path>
    </g>
</svg>