<svg
    xmlns="http://www.w3.org/2000/svg"
    version="1.1"
    xmlns:xlink="http://www.w3.org/1999/xlink"
    xmlns:svgjs="http://svgjs.com/svgjs"
    width="512"
    height="512"
    x="0"
    y="0"
    viewBox="0 0 512 512"
    style="enable-background:new 0 0 512 512"
    xml:space="preserve"
    class=""
>
    <g>
        <path d="M256 10.24c-113.05 0-204.8 27.443-204.8 61.44v368.64c0 33.997 91.75 61.44 204.8 61.44s204.8-27.443 204.8-61.44V71.68c0-33.997-91.75-61.44-204.8-61.44" style="" fill="#ffcc00" data-original="#ffcc00"></path>
        <path d="M450.56 440.32c0 21.381-74.015 51.2-194.56 51.2s-194.56-29.819-194.56-51.2v-90.419c.614.43 1.475.799 2.109 1.249 3.482 2.335 7.291 4.547 11.469 6.697 1.167.573 2.253 1.188 3.461 1.761 5.345 2.56 11.1 4.956 17.326 7.148.328.123.676.225 1.004.328C138.158 381.645 197.222 389.12 256 389.12s117.842-7.475 159.191-22.036c.328-.102.676-.205 1.004-.328a172.936 172.936 0 0 0 17.326-7.148c1.208-.573 2.294-1.188 3.461-1.761 4.178-2.15 7.987-4.362 11.469-6.697.635-.451 1.495-.819 2.109-1.249v90.419zM256 20.48c120.545 0 194.56 29.819 194.56 51.2s-74.015 51.2-194.56 51.2S61.44 93.061 61.44 71.68s74.015-51.2 194.56-51.2zM75.018 112.087c1.167.573 2.253 1.188 3.461 1.761 5.345 2.56 11.1 4.956 17.326 7.148.328.123.676.225 1.004.328C138.158 135.885 197.222 143.36 256 143.36s117.842-7.475 159.191-22.036c.328-.102.676-.205 1.004-.328a172.936 172.936 0 0 0 17.326-7.148c1.208-.573 2.294-1.188 3.461-1.761 4.178-2.15 7.987-4.362 11.469-6.697.635-.451 1.495-.819 2.109-1.249v90.419c0 21.381-74.015 51.2-194.56 51.2s-194.56-29.819-194.56-51.2v-90.419c.614.43 1.475.799 2.109 1.249 3.482 2.335 7.291 4.547 11.469 6.697zM61.44 317.44v-90.419c.614.43 1.475.799 2.109 1.249 3.482 2.335 7.291 4.547 11.469 6.697 1.167.573 2.253 1.188 3.461 1.761 5.345 2.56 11.1 4.956 17.326 7.148.328.123.676.225 1.004.328C138.158 258.765 197.222 266.24 256 266.24s117.842-7.475 159.191-22.036c.328-.102.676-.205 1.004-.328a172.936 172.936 0 0 0 17.326-7.148c1.208-.573 2.294-1.188 3.461-1.761 4.178-2.15 7.987-4.362 11.469-6.697.635-.451 1.495-.819 2.109-1.249v90.419c0 21.381-74.015 51.2-194.56 51.2s-194.56-29.819-194.56-51.2zm409.6 122.88V71.68C471.04 24.617 362.865 0 256 0S40.96 24.617 40.96 71.68v368.64C40.96 487.383 149.135 512 256 512s215.04-24.617 215.04-71.68z" fill="#000000" data-original="#000000"></path>
        <path d="M471.04 440.32v-40.96c0-5.652-4.588-10.24-10.24-10.24s-10.24 4.588-10.24 10.24c0 21.381-74.015 51.2-194.56 51.2s-194.56-29.819-194.56-51.2c0-5.652-4.588-10.24-10.24-10.24s-10.24 4.588-10.24 10.24v40.96C40.96 487.383 149.135 512 256 512s215.04-24.617 215.04-71.68" style="opacity:0.12;enable-background:new ;" fill="#000000" data-original="#000000"></path>
    </g>
</svg>